<?xml version="1.0" encoding="UTF-8"?>
<svg width="36px" height="34px" viewBox="0 0 36 34" version="1.1" xmlns="http://www.w3.org/2000/svg" xmlns:xlink="http://www.w3.org/1999/xlink">
    <!-- Generator: Sketch 42 (36781) - http://www.bohemiancoding.com/sketch -->
    <title>empty-star</title>
    <desc>Created with Sketch.</desc>
    <defs></defs>
    <g id="Page-1" stroke="none" stroke-width="1" fill="none" fill-rule="evenodd">
        <g id="empty-star" transform="translate(1.000000, 0.000000)" fill-rule="nonzero" stroke="#909090" fill="#FFFFFF">
            <g id="app">
                <g id="search_lavor-copy-18">
                    <g id="Group-3">
                        <path d="M33.714326,13.1406037 C33.714326,12.5379244 33.071468,12.2968527 32.589324,12.2164955 L22.504491,10.7499759 L17.984396,1.60933996 C17.803592,1.22764308 17.462074,0.785678267 17.00002,0.785678267 C16.537966,0.785678267 16.196448,1.22764308 16.015644,1.60933996 L11.495549,10.7499759 L1.410716,12.2164955 C0.908483,12.2968527 0.285714,12.5379244 0.285714,13.1406037 C0.285714,13.5022113 0.546875,13.8437295 0.787947,14.1048906 L8.100456,21.2165062 L6.372775,31.261161 C6.352686,31.4017862 6.332596,31.5223221 6.332596,31.6629472 C6.332596,32.1852693 6.593758,32.6674127 7.176347,32.6674127 C7.457598,32.6674127 7.718759,32.5669662 7.97992,32.426341 L17.00002,27.6852639 L26.02012,32.426341 C26.261192,32.5669662 26.542442,32.6674127 26.823692,32.6674127 C27.406282,32.6674127 27.647354,32.1852693 27.647354,31.6629472 C27.647354,31.5223221 27.647354,31.4017862 27.627265,31.261161 L25.899584,21.2165062 L33.192004,14.1048906 C33.453165,13.8437295 33.714326,13.5022113 33.714326,13.1406037 Z" id=""></path>
                    </g>
                </g>
            </g>
        </g>
    </g>
</svg>