<?xml version="1.0" encoding="UTF-8"?>
<svg width="150px" height="143px" viewBox="0 0 150 143" version="1.1" xmlns="http://www.w3.org/2000/svg" xmlns:xlink="http://www.w3.org/1999/xlink">
    <!-- Generator: Sketch 42 (36781) - http://www.bohemiancoding.com/sketch -->
    <title></title>
    <desc>Created with Sketch.</desc>
    <defs></defs>
    <g id="app" stroke="none" stroke-width="1" fill="none" fill-rule="evenodd">
        <g id="search_lavor-copy-18" transform="translate(-124.000000, -167.000000)" fill="#39B7B6">
            <g id="Group-3" transform="translate(71.000000, 167.000000)">
                <path d="M202.589524,55.2869936 C202.589524,52.5900671 199.712802,51.5112965 197.555261,51.1517063 L152.426691,44.5891851 L132.199742,3.68579957 C131.390664,1.97774611 129.862406,0 127.794762,0 C125.727118,0 124.19886,1.97774611 123.389782,3.68579957 L103.162833,44.5891851 L58.0342628,51.1517063 C55.7868241,51.5112965 53,52.5900671 53,55.2869936 C53,56.9051495 54.1686682,58.4334078 55.2474388,59.602076 L87.9701472,91.4258089 L80.2389578,136.374584 C80.1490603,137.003867 80.0591627,137.543252 80.0591627,138.172535 C80.0591627,140.509871 81.2278309,142.667413 83.8348598,142.667413 C85.0934255,142.667413 86.2620937,142.217925 87.4307619,141.588642 L127.794762,120.37282 L168.158762,141.588642 C169.237533,142.217925 170.496099,142.667413 171.754664,142.667413 C174.361693,142.667413 175.440464,140.509871 175.440464,138.172535 C175.440464,137.543252 175.440464,137.003867 175.350566,136.374584 L167.619377,91.4258089 L200.252188,59.602076 C201.420856,58.4334078 202.589524,56.9051495 202.589524,55.2869936 Z" id=""></path>
            </g>
        </g>
    </g>
</svg>